<svg width="512" height="512" viewBox="0 0 512 512" fill="none" xmlns="http://www.w3.org/2000/svg">
<rect width="512" height="512" rx="8" fill="#F57F20"/>
<path d="M393.148 469.174H119.853C79.1896 469.174 46.2168 436.201 46.2168 395.538V122.228C46.2168 81.5646 79.1896 48.5918 119.853 48.5918H393.163C433.826 48.5918 466.799 81.5646 466.799 122.228V395.538C466.799 436.201 433.826 469.174 393.148 469.174Z" fill="#F57F20"/>
<path d="M223.714 132.949V241.589H289.301V132.949H319.616V384.815H289.301V272.785H223.714V384.815H193.399V132.949H223.714Z" fill="white"/>
<path d="M374.123 276.086C383.624 276.086 391.326 268.384 391.326 258.883C391.326 249.382 383.624 241.68 374.123 241.68C364.622 241.68 356.92 249.382 356.92 258.883C356.92 268.384 364.622 276.086 374.123 276.086Z" fill="white"/>
<path d="M127.051 276.086C136.552 276.086 144.254 268.384 144.254 258.883C144.254 249.382 136.552 241.68 127.051 241.68C117.55 241.68 109.848 249.382 109.848 258.883C109.848 268.384 117.55 276.086 127.051 276.086Z" fill="white"/>
</svg>