<svg width="512" height="512" viewBox="0 0 512 512" fill="none" xmlns="http://www.w3.org/2000/svg">
<g clip-path="url(#clip0_3978_17786)">
<path d="M91 141.458L169.958 29L214.834 40.5705L163.236 119.472L201.686 133.843L256.486 51.4321L305.752 64.1345L252.587 152.651L289.642 166.531L347.472 74.7675L408.468 90.4883L315.47 232.01L91 141.458Z" fill="#333232"/>
<path d="M247.123 337.116L301.5 253.241L345.026 316.056L359.123 294.504L315.46 231.998L408.458 90.4766L491.727 254.533L415.455 375.177L390.142 340.569L375.153 361.606L400.946 398.124L347.45 482.742L247.111 337.116H247.123Z" fill="#F47920"/>
<path d="M347.462 482.753L322.834 447.001L322.811 447.035L298.264 411.58C294.297 405.829 288.786 393.607 282.372 390.829L86.1193 305.994C78.4362 302.678 71.2446 311.55 76.0809 318.376L112.622 369.986C118.956 378.927 127.599 395.642 137.638 400.056L347.45 482.753H347.462ZM276.015 433.258L167.81 385.295C161.865 382.654 156.937 379.35 153.576 375.737L138.518 359.559C135.888 356.735 141.022 354.768 145.675 356.815L257.127 405.715C260.934 407.384 264.067 409.499 266.171 411.809L283.229 430.56C285.79 433.384 280.634 435.316 276.015 433.258Z" fill="#231F20"/>
<path d="M50.7317 282.351L20.1934 240.093L171.273 240.871L53.3957 195.023L77.6457 160.483L301.498 253.242L276.036 292.755L132.068 287.919L247.133 337.116L279.215 384.004L50.7317 282.351Z" fill="#333231"/>
<path d="M91 141.458L169.958 29L214.834 40.5705L163.236 119.472L201.686 133.843L256.486 51.4321L305.752 64.1345L252.587 152.651L289.642 166.531L347.472 74.7675L408.468 90.4883L315.47 232.01L91 141.458Z" fill="#333231"/>
<path d="M247.123 337.116L301.5 253.241L345.026 316.056L359.123 294.504L315.46 231.998L408.458 90.4766L491.727 254.533L415.455 375.177L390.142 340.569L375.153 361.606L400.946 398.124L347.45 482.742L247.111 337.116H247.123Z" fill="#F47920"/>
<path d="M347.462 482.753L322.834 447.001L322.811 447.035L298.264 411.58C294.297 405.829 288.786 393.607 282.372 390.829L86.1193 305.994C78.4362 302.678 71.2446 311.55 76.0809 318.376L112.622 369.986C118.956 378.927 127.599 395.642 137.638 400.056L347.45 482.753H347.462ZM276.015 433.258L167.81 385.295C161.865 382.654 156.937 379.35 153.576 375.737L138.518 359.559C135.888 356.735 141.022 354.768 145.675 356.815L257.127 405.715C260.934 407.384 264.067 409.499 266.171 411.809L283.229 430.56C285.79 433.384 280.634 435.316 276.015 433.258Z" fill="black"/>
<path d="M279.203 384.004L247.122 337.116L20.1934 240.093L50.7317 282.35L279.203 384.004Z" fill="black"/>
</g>
<defs>
<clipPath id="clip0_3978_17786">
<rect width="471.931" height="453.823" fill="white" transform="translate(20 29)"/>
</clipPath>
</defs>
</svg>
