<svg width="17" height="16" viewBox="0 0 17 16" fill="none" xmlns="http://www.w3.org/2000/svg">
<path d="M10.1673 2.66797H6.83398L5.16732 4.66797H3.16732C2.8137 4.66797 2.47456 4.80844 2.22451 5.05849C1.97446 5.30854 1.83398 5.64768 1.83398 6.0013V12.0013C1.83398 12.3549 1.97446 12.6941 2.22451 12.9441C2.47456 13.1942 2.8137 13.3346 3.16732 13.3346H13.834C14.1876 13.3346 14.5267 13.1942 14.7768 12.9441C15.0268 12.6941 15.1673 12.3549 15.1673 12.0013V6.0013C15.1673 5.64768 15.0268 5.30854 14.7768 5.05849C14.5267 4.80844 14.1876 4.66797 13.834 4.66797H11.834L10.1673 2.66797Z" stroke="#373737" stroke-width="1.2" stroke-linecap="round" stroke-linejoin="round"/>
<path d="M8.50065 10.668C9.60522 10.668 10.5007 9.77254 10.5007 8.66797C10.5007 7.5634 9.60522 6.66797 8.50065 6.66797C7.39608 6.66797 6.50065 7.5634 6.50065 8.66797C6.50065 9.77254 7.39608 10.668 8.50065 10.668Z" stroke="#373737" stroke-width="1.2" stroke-linecap="round" stroke-linejoin="round"/>
</svg>
