<svg width="78" height="69" viewBox="0 0 78 69" fill="none" xmlns="http://www.w3.org/2000/svg">
<path d="M31.1719 0V29.7411H49.1269V0H57.4258V68.9502H49.1269V38.2811H31.1719V68.9502H22.873V0H31.1719Z" fill="black"/>
<path d="M72.3462 39.1807C74.9472 39.1807 77.0557 37.0722 77.0557 34.4712C77.0557 31.8702 74.9472 29.7617 72.3462 29.7617C69.7452 29.7617 67.6367 31.8702 67.6367 34.4712C67.6367 37.0722 69.7452 39.1807 72.3462 39.1807Z" fill="black"/>
<path d="M4.70951 39.1807C7.3105 39.1807 9.41902 37.0722 9.41902 34.4712C9.41902 31.8702 7.3105 29.7617 4.70951 29.7617C2.10852 29.7617 0 31.8702 0 34.4712C0 37.0722 2.10852 39.1807 4.70951 39.1807Z" fill="black"/>
</svg>
