<svg width="19" height="18" viewBox="0 0 19 18" fill="none" xmlns="http://www.w3.org/2000/svg">
<path d="M17.8149 5.91826L12.7782 5.18651L10.5285 0.624716C10.1159 -0.208239 8.74578 -0.208239 8.3332 0.624716L6.08344 5.18651L1.04679 5.91826C0.587493 5.98832 0.206046 6.30749 0.0581382 6.75122C-0.081985 7.19494 0.0347844 7.67759 0.369523 8.00454L4.01273 11.5543L3.15642 16.5676C3.07857 17.0269 3.2654 17.494 3.63907 17.7665C3.84925 17.9222 4.10614 18 4.35525 18C4.54987 18 4.74448 17.9533 4.92353 17.8599L9.43083 15.4856L13.9303 17.8521C14.3429 18.0778 14.8411 18.0389 15.2148 17.7587C15.5885 17.4862 15.7831 17.0269 15.6975 16.5598L14.8411 11.5465L18.4843 7.99676C18.8191 7.6698 18.9359 7.18716 18.7957 6.74343C18.6556 6.30749 18.2742 5.98832 17.8149 5.91826Z" fill="#F4C13E"/>
</svg>
